<?xml version="1.0" standalone="no"?>
<!DOCTYPE svg PUBLIC "-//W3C//DTD SVG 20010904//EN"
 "http://www.w3.org/TR/2001/REC-SVG-20010904/DTD/svg10.dtd">
<svg version="1.0" xmlns="http://www.w3.org/2000/svg"
 width="489.000000pt" height="106.000000pt" viewBox="0 0 489.000000 106.000000"
 preserveAspectRatio="xMidYMid meet">
<metadata>
Created by potrace 1.16, written by Peter Selinger 2001-2019
</metadata>
<g transform="translate(0.000000,106.000000) scale(0.100000,-0.100000)"
fill="#000000" stroke="none">
<path d="M100 1022 c0 -22 -40 -62 -61 -62 -13 0 -15 -26 -15 -180 0 -159 2
-180 16 -180 29 0 60 -38 60 -75 0 -39 -28 -75 -58 -75 -17 0 -19 -12 -18
-180 0 -158 2 -180 17 -180 20 0 59 -41 59 -63 0 -16 35 -17 450 -17 429 0
450 1 450 18 0 20 39 62 58 62 9 0 12 48 12 179 l0 179 -26 6 c-16 4 -30 19
-40 41 -13 31 -13 39 1 65 8 16 26 32 40 36 l24 6 1 176 0 177 -30 14 c-21 9
-33 22 -37 42 l-5 29 -449 0 c-428 0 -449 -1 -449 -18z"/>
<path d="M1401 818 c-110 -31 -174 -125 -174 -258 -1 -174 115 -283 285 -267
117 10 192 72 224 186 31 103 -7 241 -81 297 -63 48 -171 66 -254 42z m146
-69 c150 -56 150 -322 0 -378 -120 -46 -237 47 -237 189 0 142 117 235 237
189z"/>
<path d="M3940 565 l0 -265 40 0 40 0 0 85 c0 64 3 83 13 79 6 -3 41 -41 76
-85 62 -77 64 -79 108 -79 52 0 54 -7 -40 113 l-69 87 72 78 71 77 -42 3 c-41
3 -45 0 -116 -70 l-73 -72 0 157 0 157 -40 0 -40 0 0 -265z"/>
<path d="M2950 790 l0 -30 80 0 80 0 0 -230 0 -230 45 0 45 0 0 230 0 230 85
0 85 0 0 30 0 30 -210 0 -210 0 0 -30z"/>
<path d="M4706 774 c-3 -9 -6 -28 -6 -42 0 -54 -11 -72 -41 -72 -24 0 -29 -4
-29 -25 0 -21 5 -25 30 -25 l30 0 0 -134 c0 -114 3 -137 18 -156 32 -39 155
-35 169 5 2 6 -3 19 -10 29 -11 15 -17 16 -40 5 -49 -22 -57 -3 -57 132 l0
119 50 0 c47 0 50 2 50 25 0 23 -3 25 -50 25 l-50 0 0 65 0 65 -29 0 c-17 0
-31 -6 -35 -16z"/>
<path d="M1950 659 c-13 -6 -33 -17 -42 -26 -17 -15 -18 -15 -18 5 0 18 -6 22
-35 22 l-35 0 0 -240 0 -240 40 0 40 0 0 66 c0 64 1 65 23 57 43 -16 124 -9
153 13 56 41 69 69 72 158 3 68 0 90 -17 123 -31 63 -111 90 -181 62z m81 -62
c27 -21 39 -54 39 -112 0 -61 -19 -108 -49 -125 -28 -15 -73 -12 -99 6 -20 14
-22 24 -22 104 0 86 1 89 31 114 33 28 74 33 100 13z"/>
<path d="M2280 648 c-65 -33 -93 -90 -87 -180 5 -83 32 -129 91 -157 23 -12
60 -21 82 -21 84 0 162 38 148 74 -7 19 -22 19 -101 -5 -30 -9 -51 -10 -70 -3
-32 11 -73 67 -73 100 0 24 0 24 125 24 142 0 144 1 125 71 -28 106 -136 149
-240 97z"/>
<path d="M2705 651 c-47 -25 -45 -25 -45 -6 0 10 -11 15 -35 15 l-35 0 0 -180
0 -180 40 0 40 0 0 134 0 134 34 21 c46 29 80 27 105 -5 19 -24 21 -40 21
-155 l0 -129 40 0 40 0 0 130 c0 138 -9 179 -49 214 -32 29 -107 32 -156 7z"/>
<path d="M3680 659 c-67 -27 -104 -90 -104 -179 0 -127 74 -199 192 -187 61 7
107 33 107 63 0 25 -38 30 -67 10 -26 -18 -70 -21 -99 -6 -29 16 -49 64 -49
119 0 62 16 98 51 117 37 18 61 18 105 -3 35 -17 36 -17 50 2 21 28 18 34 -28
55 -46 21 -118 25 -158 9z"/>
<path d="M4370 659 c-66 -26 -104 -90 -103 -174 0 -75 21 -125 66 -159 64 -49
187 -45 244 7 42 38 -12 63 -67 32 -58 -33 -128 -8 -154 55 -9 22 -16 45 -16
50 0 6 52 10 131 10 l132 0 -5 51 c-6 59 -31 97 -79 121 -37 20 -109 23 -149
7z"/>
<path d="M3420 480 l0 -180 40 0 40 0 0 180 0 180 -40 0 -40 0 0 -180z"/>
</g>
</svg>
